<?xml version="1.0" encoding="UTF-8"?>
<svg version="1.1" xmlns="http://www.w3.org/2000/svg" width="992" height="1056">
<path d="M0 0 C327.36 0 654.72 0 992 0 C992 348.48 992 696.96 992 1056 C664.64 1056 337.28 1056 0 1056 C0 707.52 0 359.04 0 0 Z " fill="#F3F3F5" transform="translate(0,0)"/>
<path d="M0 0 C0.98355469 0.20625 1.96710938 0.4125 2.98046875 0.625 C33.61121393 7.59914121 58.09073967 26.22445463 74.7890625 52.484375 C75.1696582 53.09087891 75.55025391 53.69738281 75.94238281 54.32226562 C76.84487674 55.75392265 77.77513645 57.16801383 78.7109375 58.578125 C95.13693961 84.12968385 99.23394751 116.10514656 99.1875 145.8125 C99.18656342 146.58722656 99.18562683 147.36195313 99.18466187 148.16015625 C99.11734838 173.92364814 96.20028433 199.17539812 89 224 C88.71133057 225.00764404 88.42266113 226.01528809 88.12524414 227.0534668 C84.31064574 240.21216487 80.37997385 252.85090087 74 265 C73.30341955 266.3834769 72.60816881 267.76762389 71.9140625 269.15234375 C61.49575903 289.66504164 47.85608457 307.41174414 32 324 C31.36449219 324.67675781 30.72898437 325.35351562 30.07421875 326.05078125 C25.12811199 331.18576082 19.57723603 335.574427 14 340 C12.98679687 340.81855469 11.97359375 341.63710938 10.9296875 342.48046875 C3.04507645 348.77275987 -5.22644308 354.03860275 -14 359 C-14.94842773 359.54599854 -14.94842773 359.54599854 -15.91601562 360.10302734 C-32.9129778 369.84719999 -52.84300155 375.71892729 -72.5 371.0625 C-79.41501216 368.52619796 -85.73874776 362.82934964 -89.375 356.4375 C-89.96968425 354.97884053 -90.5047838 353.49535873 -91 352 C-91.34546875 351.0203125 -91.6909375 350.040625 -92.046875 349.03125 C-101.80476236 316.50495879 -100.8097119 267.34481701 -95 234 C-89.0850819 233.1100239 -83.88383625 232.94651313 -78 234 C-77.20980469 234.10054687 -76.41960937 234.20109375 -75.60546875 234.3046875 C-69.58285286 235.25818727 -69.58285286 235.25818727 -66.9375 238.625 C-65.54033935 243.65477833 -65.6713197 247.99196631 -66.50219727 253.06811523 C-67.05783508 257.45680921 -67.16139945 261.71557069 -67.16796875 266.1328125 C-67.17220352 266.998992 -67.17643829 267.86517151 -67.18080139 268.75759888 C-67.19064652 271.54678242 -67.1907317 274.33580224 -67.1875 277.125 C-67.18689575 278.07274292 -67.1862915 279.02048584 -67.18566895 279.99694824 C-67.69907133 307.54179616 -67.69907133 307.54179616 -61 334 C-57.17561953 336.54958698 -54.41488702 336.53343627 -50 336 C-26.71009399 331.24001921 -6.75844237 317.18468685 10 301 C11.18529297 299.89205078 11.18529297 299.89205078 12.39453125 298.76171875 C43.31195289 269.14380345 62.88256496 221.11636226 64.82421875 178.56640625 C65 176 65 176 65.50048828 174.29858398 C66.20273527 171.06708085 66.14917721 167.9619447 66.16796875 164.65625 C66.17224884 163.93909821 66.17652893 163.22194641 66.18093872 162.48306274 C66.19094873 160.155312 66.19098727 157.82776826 66.1875 155.5 C66.18656342 154.70656189 66.18562683 153.91312378 66.18466187 153.09564209 C66.1251229 129.90946854 64.20992767 107.56610393 55 86 C54.55019775 84.93338135 54.55019775 84.93338135 54.09130859 83.84521484 C46.16753748 65.40915282 35.26123426 48.53008163 17 39 C16.175 38.54882812 15.35 38.09765625 14.5 37.6328125 C-7.59339335 25.96473914 -40.46392965 26.7322499 -64 34 C-69.15869307 35.6445367 -74.08772342 37.73403288 -79 40 C-79.81645996 40.36931641 -80.63291992 40.73863281 -81.47412109 41.11914062 C-84.1982814 42.35607826 -86.91314622 43.61132208 -89.625 44.875 C-90.4595874 45.26123535 -91.2941748 45.6474707 -92.15405273 46.04541016 C-104.12744829 51.75434752 -115.11471768 59.27346775 -126.125 66.625 C-126.70317474 67.01029877 -127.28134949 67.39559753 -127.87704468 67.79257202 C-145.63955082 79.61441689 -145.63955082 79.61441689 -162.33203125 92.8671875 C-165 95 -165 95 -167.875 95.3125 C-168.57625 95.209375 -169.2775 95.10625 -170 95 C-170.98313628 92.41851332 -171.06827308 91.21120932 -170.20703125 88.546875 C-162.91203036 73.91600488 -152.30584007 61.67678775 -141 50 C-139.93845703 48.87851562 -139.93845703 48.87851562 -138.85546875 47.734375 C-104.04083852 11.71435024 -50.21177157 -11.36334293 0 0 Z " fill="#4F2669" transform="translate(582,313)"/>
<path d="M0 0 C0.99440094 0.00209473 1.98880188 0.00418945 3.01333618 0.00634766 C28.24240679 0.1160183 49.01926527 4.6858237 70.9375 17.5 C70.9375 18.16 70.9375 18.82 70.9375 19.5 C69.13671875 20.7265625 69.13671875 20.7265625 66.625 22.125 C60.05051271 25.93128211 53.59624812 30.21851579 47.9296875 35.30078125 C45.9375 36.5 45.9375 36.5 43.55078125 36.3359375 C40.66382598 35.41245704 37.91617901 34.30739932 35.125 33.125 C7.73024465 22.60028887 -23.56905343 25.84171768 -50.0625 37.5 C-65.65893165 44.7743813 -76.23348193 54.7287498 -83.0625 70.5 C-88.33993533 85.76005395 -81.85526416 103.69923618 -75.26538086 117.43212891 C-72.15302978 123.62832315 -68.42339614 129.10713607 -64.0625 134.5 C-63.04929687 135.81484375 -63.04929687 135.81484375 -62.015625 137.15625 C-46.22780033 157.20793973 -27.68911751 169.17730455 -5.0625 180.5 C-3.9494751 181.06859741 -3.9494751 181.06859741 -2.81396484 181.64868164 C0.51027323 183.34012992 3.74430217 184.94126788 7.3125 186.0625 C8.06402344 186.30226563 8.81554687 186.54203125 9.58984375 186.7890625 C12.01328964 187.52295127 14.44378512 188.22982243 16.875 188.9375 C21.08347354 190.17987781 25.09321628 191.70959269 29.125 193.4375 C52.9487778 202.43759384 79.27466769 206.11882433 104.515625 208.26953125 C105.24309433 208.33206589 105.97056366 208.39460052 106.72007751 208.45903015 C110.24835571 208.75854206 113.77647927 209.03908233 117.30883789 209.28588867 C134.45706325 210.62940605 149.04104236 214.57427113 161.2109375 227.4453125 C167.9375 235.45022624 167.9375 235.45022624 167.9375 240.5 C168.5975 240.83 169.2575 241.16 169.9375 241.5 C171.35394354 245.59194801 172.20010116 249.16708088 171.9375 253.5 C168.29421891 252.19379729 165.55899956 250.60389221 162.5 248.25 C155.26042107 243.05402593 146.7578205 239.02500869 137.9375 237.5 C136.87917969 237.25121094 135.82085938 237.00242187 134.73046875 236.74609375 C126.72850026 234.95150277 119.34908987 234.29652218 111.12109375 234.44921875 C87.78245243 234.85962862 63.81718986 231.90478078 40.9375 227.5 C40.02355469 227.32597656 39.10960937 227.15195312 38.16796875 226.97265625 C34.63195261 226.24376706 31.24570634 225.2990549 27.83203125 224.125 C24.52603729 223.0102628 21.20990528 221.97274492 17.859375 221 C17.00859375 220.7525 16.1578125 220.505 15.28125 220.25 C13.53765897 219.7458291 11.79283787 219.24589478 10.046875 218.75 C5.56961216 217.43958161 1.88772672 216.03603196 -2.0625 213.5 C-4.06786587 212.68977835 -6.09038082 211.92117309 -8.125 211.1875 C-14.68884495 208.72234556 -20.84357174 205.72066351 -27.0625 202.5 C-27.66602295 202.21020264 -28.2695459 201.92040527 -28.89135742 201.62182617 C-34.11430845 199.10002471 -38.9337758 196.16385684 -43.75 192.9375 C-44.53455566 192.4122876 -45.31911133 191.8870752 -46.12744141 191.34594727 C-53.21367341 186.52560267 -59.69876429 181.22592192 -66.0625 175.5 C-67.10007036 174.58441999 -68.13783159 173.66905624 -69.17578125 172.75390625 C-88.55167424 155.50403878 -102.32672583 135.39444851 -112.0625 111.5 C-112.39886475 110.70883789 -112.73522949 109.91767578 -113.08178711 109.10253906 C-118.17033738 95.59894286 -118.53145168 75.99628685 -113.44140625 62.53515625 C-112.98636719 61.53355469 -112.53132813 60.53195312 -112.0625 59.5 C-111.66780518 58.61223877 -111.66780518 58.61223877 -111.26513672 57.70654297 C-106.73812655 47.74814539 -100.85489549 40.11170226 -93.0625 32.5 C-92.37929688 31.79617188 -91.69609375 31.09234375 -90.9921875 30.3671875 C-80.94450615 20.63472753 -67.21683068 13.03131186 -54.0625 8.5 C-52.83273437 8.07203125 -51.60296875 7.6440625 -50.3359375 7.203125 C-33.50070584 1.59680965 -17.65204764 -0.08513643 0 0 Z " fill="#4F2869" transform="translate(402.0625,299.5)"/>
<path d="M0 0 C6.22797444 0.51336883 12.31024966 1.34464122 18.4453125 2.53515625 C20.65577068 2.937365 22.82938462 3.21048205 25.0625 3.4375 C26.031875 3.623125 27.00125 3.80875 28 4 C30.59074584 7.88611876 30.02735429 10.79478625 29.6875 15.25 C29.57716953 16.99082512 29.46783552 18.73171362 29.359375 20.47265625 C29.29943359 21.38418457 29.23949219 22.29571289 29.17773438 23.23486328 C27.03875563 56.51243649 24.74270616 92.81588237 35 125 C35.33515625 126.09570312 35.6703125 127.19140625 36.015625 128.3203125 C40.5165797 141.47451109 48.66237719 152.78603184 59 162 C55.82872678 163.58563661 53.51263018 162.30867597 50.234375 161.26171875 C32.36424712 154.2906423 13.38053972 142.74799319 5.40087891 124.59106445 C2.61577014 117.75799553 0.88233294 110.88973121 -0.45703125 103.6328125 C-0.73079781 101.08596524 -0.73079781 101.08596524 -2 100 C-7.86505121 73.91837867 -5.7911622 45.29426282 -3.625 18.875 C-3.5620575 18.09016235 -3.49911499 17.30532471 -3.43426514 16.4967041 C-3.25198161 14.28560436 -3.05533404 12.07640042 -2.8515625 9.8671875 C-2.73635254 8.61019043 -2.62114258 7.35319336 -2.50244141 6.05810547 C-2 3 -2 3 0 0 Z " fill="#8EA030" transform="translate(440,539)"/>
<path d="M0 0 C3.71679867 -0.20228306 6.03961124 0.21348637 9.328125 1.94140625 C10.52139404 2.56414429 10.52139404 2.56414429 11.73876953 3.19946289 C12.56747559 3.64926514 13.39618164 4.09906738 14.25 4.5625 C15.52979736 5.24977173 15.52979736 5.24977173 16.83544922 5.95092773 C22.68548291 9.14955168 28.0804754 12.46512959 33 17 C33.72960937 17.639375 34.45921875 18.27875 35.2109375 18.9375 C48.81855072 31.56982354 56.18504328 49.20247021 62.4375 66.3125 C72.72947284 93.99977565 85.72997669 120.85137046 109 140 C102.9515775 142.39228651 95.68791396 138.36744656 90 136 C65.1257397 124.61054541 54.77942793 103.71209052 45.296875 79.546875 C43.7031414 75.18810961 42.37750546 70.77722681 41.0625 66.328125 C39.06736042 60.07864368 36.52508943 54.05055581 34 48 C33.50886719 46.78376953 33.50886719 46.78376953 33.0078125 45.54296875 C28.2384479 34.16824522 21.52650134 23.72436622 14 14 C13.3709375 13.16082031 12.741875 12.32164062 12.09375 11.45703125 C9.85054909 8.82461824 7.49233817 6.85085556 4.75 4.75 C3.1507068 3.52048558 1.56235575 2.27612263 0 1 C0 0.67 0 0.34 0 0 Z " fill="#8EA12E" transform="translate(359,569)"/>
<path d="M0 0 C-0.97839844 0.88300781 -1.95679688 1.76601563 -2.96484375 2.67578125 C-20.79376228 18.91990702 -35.8273439 37.4765525 -38.625 62.25 C-40 66 -40 66 -42.45703125 67.390625 C-45.28494917 68.4432183 -48.07419489 69.26963557 -51 70 C-52.485 70.495 -52.485 70.495 -54 71 C-56.33299825 71.03954234 -58.66708189 71.04401732 -61 71 C-58.42915539 48.46408557 -58.42915539 48.46408557 -53.0234375 40.76171875 C-51.74883974 38.90722913 -51.74883974 38.90722913 -52 36 C-51.34 36 -50.68 36 -50 36 C-50 35.01 -50 34.02 -50 33 C-49.34 33 -48.68 33 -48 33 C-48 32.01 -48 31.02 -48 30 C-47.34 30 -46.68 30 -46 30 C-45.6596875 29.195625 -45.6596875 29.195625 -45.3125 28.375 C-42.72301716 23.68926914 -38.97911382 19.56748136 -35 16 C-34.34 16 -33.68 16 -33 16 C-33 15.34 -33 14.68 -33 14 C-30.84094462 12.448834 -28.69269592 11.02335856 -26.4375 9.625 C-25.82841797 9.23828125 -25.21933594 8.8515625 -24.59179688 8.453125 C-7.5159053 -2.31643201 -7.5159053 -2.31643201 0 0 Z " fill="#90A234" transform="translate(587,569)"/>
<path d="M0 0 C0.66 0 1.32 0 2 0 C2.91723268 2.75169805 3.12850959 4.38374928 3.1328125 7.21875 C3.13498779 8.05889648 3.13716309 8.89904297 3.1394043 9.76464844 C3.13227417 11.11864746 3.13227417 11.11864746 3.125 12.5 C3.11883667 13.90427246 3.11883667 13.90427246 3.11254883 15.33691406 C3.00975151 28.45517849 2.6859609 41.33753562 0.01635742 54.21972656 C-0.66743497 57.59011774 -1.07238031 60.76712126 -1.03125 64.1953125 C-1.00560008 67.31819002 -1.20173795 69.69611705 -1.9375 72.6875 C-2.80548616 76.63896147 -3.23905423 80.46245733 -3.5 84.5 C-3.75549007 88.4099105 -4.14619175 92.11419686 -5 95.9375 C-6.50954513 102.87022579 -6.73416439 109.92552123 -7.10449219 116.99462891 C-7.20973889 118.99673015 -7.32357036 120.99837409 -7.4375 123 C-7.49808594 124.19625 -7.55867187 125.3925 -7.62109375 126.625 C-7.99986425 129.99879082 -8.80688438 132.83123949 -10 136 C-15.875 135.125 -15.875 135.125 -17 134 C-17.20551373 127.7556034 -16.74434286 121.79769788 -15.90625 115.6171875 C-15.79526978 114.75868195 -15.68428955 113.90017639 -15.56994629 113.01565552 C-15.21868801 110.30136739 -14.86010686 107.58812729 -14.5 104.875 C-14.14034831 102.15468155 -13.78247932 99.4341857 -13.43005371 96.71292114 C-13.21179841 95.02833487 -12.98946392 93.34427018 -12.7623291 91.66085815 C-12.29737038 88.07857102 -11.94496372 84.60798294 -11.99414062 80.99267578 C-11.99607422 80.00509277 -11.99800781 79.01750977 -12 78 C-11.505 77.505 -11.505 77.505 -11 77 C-10.83560067 75.00285257 -10.72053205 73.001624 -10.625 71 C-10.28512683 65.69479231 -9.63812203 60.66668712 -8.625 55.4375 C-6.85653972 46.2504525 -5.97972301 36.9867761 -5.09033203 27.67944336 C-4.49746479 21.53759099 -3.8404666 15.41097037 -3.03515625 9.29296875 C-2.81098022 7.58983521 -2.81098022 7.58983521 -2.58227539 5.85229492 C-2 3 -2 3 0 0 Z " fill="#5F3E76" transform="translate(531,359)"/>
<path d="M0 0 C0.99 0 1.98 0 3 0 C3.46535203 13.83991422 2.30840316 27.30453313 0.75390625 41.0546875 C0.11439416 46.7127638 -0.3620512 52.36762317 -0.74462891 58.04858398 C-1.01078315 61.12462472 -1.44535952 64.14004406 -1.9375 67.1875 C-2.29401932 69.45796516 -2.6480559 71.72882114 -3 74 C-3.18949219 75.20785156 -3.37898438 76.41570312 -3.57421875 77.66015625 C-4.63884762 85.25693055 -5.06210253 92.71141373 -4.984375 100.38671875 C-4.97451065 101.49773453 -4.97451065 101.49773453 -4.96444702 102.63119507 C-4.92531349 106.39395248 -4.85660083 110.1535821 -4.75048828 113.91503906 C-4.72644031 115.31704968 -4.70282149 116.71906775 -4.6796875 118.12109375 C-4.64601074 119.3733374 -4.61233398 120.62558105 -4.57763672 121.91577148 C-5 125 -5 125 -6.85205078 126.94555664 C-9.64613786 128.31719361 -11.08736241 127.94463922 -14 127 C-16.26641315 124.73358685 -15.24797814 118.91121338 -15.25756836 115.77490234 C-15.12262999 102.46341408 -14.16509522 88.400515 -11.44897461 75.35302734 C-10.87434633 72.77495258 -10.87434633 72.77495258 -11.0625 69.1875 C-11.15990484 57.30411002 -8.64880431 45.40571222 -6.32128906 33.80200195 C-5.34597273 28.75533916 -4.87066176 24.06102841 -4.98779297 18.92260742 C-5.00229935 16.63785206 -4.68055324 14.58866597 -4.125 12.375 C-3.94324219 11.64023437 -3.76148438 10.90546875 -3.57421875 10.1484375 C-3.38472656 9.43945312 -3.19523437 8.73046875 -3 8 C-2.82082031 7.31164062 -2.64164062 6.62328125 -2.45703125 5.9140625 C-1.16911765 1.16911765 -1.16911765 1.16911765 0 0 Z " fill="#5B3B73" transform="translate(508,367)"/>
<path d="M0 0 C0.21114535 6.54550579 -0.2126709 12.8776581 -0.9375 19.375 C-1.02435059 20.15987793 -1.11120117 20.94475586 -1.20068359 21.75341797 C-1.87148597 27.51785469 -1.87148597 27.51785469 -2.50439453 29.89233398 C-3.11780982 32.50101091 -3.28916712 35.02493443 -3.46484375 37.69921875 C-3.54283203 38.82779297 -3.62082031 39.95636719 -3.70117188 41.11914062 C-3.85535841 43.44722988 -4.00902838 45.77535342 -4.16210938 48.10351562 C-4.55659133 53.80265732 -5.03721887 59.45695651 -5.78530884 65.11946106 C-7.07154694 74.9513303 -7.20534673 84.59665511 -7.0625 94.5 C-7.03480636 96.87202015 -7.01021819 99.24398202 -6.99131775 101.61608887 C-6.97911351 103.07293325 -6.96156203 104.52974518 -6.93800354 105.9864502 C-6.92110207 107.65767577 -6.95529642 109.32928693 -7 111 C-8 112 -8 112 -11.4375 112.1875 C-15 112 -15 112 -17 110 C-17.24291992 107.77612305 -17.24291992 107.77612305 -17.23046875 105.01171875 C-17.22934082 104.00157715 -17.22821289 102.99143555 -17.22705078 101.95068359 C-17.21399902 100.87383301 -17.20094727 99.79698242 -17.1875 98.6875 C-17.17960449 97.59260254 -17.17170898 96.49770508 -17.16357422 95.36962891 C-17.06127384 85.6683835 -16.49343248 76.19271227 -15.08984375 66.58984375 C-13.98958272 58.96203413 -12.94205576 51.32850041 -11.9375 43.6875 C-11.80385544 42.67609451 -11.80385544 42.67609451 -11.66751099 41.64425659 C-10.63652729 33.79156064 -9.7406121 25.98096017 -9.4375 18.0625 C-9.16381805 11.79327386 -8.75744048 6.30588168 -4.5859375 1.3046875 C-3 0 -3 0 0 0 Z " fill="#5B3A72" transform="translate(486,379)"/>
<path d="M0 0 C-0.0721875 1.11375 -0.144375 2.2275 -0.21875 3.375 C-0.78131712 12.48557363 -1.08637238 21.51679325 -0.9375 30.64453125 C-0.9926774 33.60686816 -1.37035232 36.12231335 -2 39 C-2 41.04169324 -1.99561206 43.08348348 -1.96875 45.125 C-2.01516349 49.39504149 -2.35446012 53.64515933 -2.64892578 57.90380859 C-2.9150871 62.16702668 -3.01731732 66.39220686 -2.9609375 70.6640625 C-2.94869141 71.61313477 -2.93644531 72.56220703 -2.92382812 73.54003906 C-2.89171974 75.40425191 -2.84652093 77.26829341 -2.78710938 79.13183594 C-2.77228516 79.98293945 -2.75746094 80.83404297 -2.7421875 81.7109375 C-2.70907471 82.84474854 -2.70907471 82.84474854 -2.67529297 84.00146484 C-3 86 -3 86 -4.26611328 87.76806641 C-6 89 -6 89 -10 89 C-11.15792478 86.68415044 -11.12730406 85.35562696 -11.12841797 82.77880859 C-11.12979767 81.90801666 -11.13117737 81.03722473 -11.13259888 80.14004517 C-11.12751312 79.19406464 -11.12242737 78.24808411 -11.1171875 77.2734375 C-11.11411591 76.29112152 -11.11104431 75.30880554 -11.10787964 74.29672241 C-11.04815295 64.66116817 -10.70900967 55.04463078 -10.25537109 45.42041016 C-10.12405794 42.60480036 -10.00501306 39.78883981 -9.88671875 36.97265625 C-9.5195456 28.6256109 -9.07575814 20.27587442 -8.2421875 11.9609375 C-8.12472168 10.72907715 -8.00725586 9.4972168 -7.88623047 8.22802734 C-6.81209718 4.31557823 -4.53844305 0 0 0 Z " fill="#5D3D74" transform="translate(460,398)"/>
<path d="M0 0 C-0.39803561 2.88575819 -0.79009069 3.82189513 -3.0625 5.75 C-3.701875 6.1625 -4.34125 6.575 -5 7 C-5.66 6.67 -6.32 6.34 -7 6 C-6.01 5.01 -5.02 4.02 -4 3 C-5.65 3 -7.3 3 -9 3 C-8 1 -8 1 -6.1875 0.375 C-4 0 -4 0 0 0 Z M-9 7 C-8.34 7.33 -7.68 7.66 -7 8 C-11.62 12.62 -16.24 17.24 -21 22 C-21 19 -21 19 -18.375 16.08203125 C-17.25750594 14.98449244 -16.13214357 13.89492105 -15 12.8125 C-14.42765625 12.25369141 -13.8553125 11.69488281 -13.265625 11.11914062 C-11.85037212 9.73926907 -10.42602845 8.36873266 -9 7 Z " fill="#B9B6B7" transform="translate(590,566)"/>
<path d="M0 0 C0 0.66 0 1.32 0 2 C-2.70879335 3.35439668 -5.00933268 3.06501451 -8 3 C-8.33 3.99 -8.66 4.98 -9 6 C-10.32 5.67 -11.64 5.34 -13 5 C-4.29032258 0 -4.29032258 0 0 0 Z " fill="#AAAE88" transform="translate(581,569)"/>
<path d="M0 0 C2.31 1.98 4.62 3.96 7 6 C3.79937313 7.60031344 1.27728194 6.03173691 -2 5 C-1.34 4.01 -0.68 3.02 0 2 C0 1.34 0 0.68 0 0 Z " fill="#A2B055" transform="translate(492,695)"/>
<path d="M0 0 C3.14624993 -0.26218749 4.61837017 -0.24754367 7.3125 1.5 C8.1478125 2.2425 8.1478125 2.2425 9 3 C8.34 3 7.68 3 7 3 C6.67 3.99 6.34 4.98 6 6 C3.97945196 4.35830472 1.97956942 2.69088222 0 1 C0 0.67 0 0.34 0 0 Z " fill="#A4B06E" transform="translate(359,569)"/>
<path d="M0 0 C3.65316671 1.24976756 4.78065836 1.67098753 7 5 C4.36 4.67 1.72 4.34 -1 4 C-0.34 3.67 0.32 3.34 1 3 C0.67 2.01 0.34 1.02 0 0 Z " fill="#97A73C" transform="translate(461,705)"/>
<path d="M0 0 C-1.28965176 1.37562854 -2.62689293 2.70766393 -4 4 C-4.66 4 -5.32 4 -6 4 C-6 2.68 -6 1.36 -6 0 C-3.50907189 -1.24546405 -2.58919267 -0.7767578 0 0 Z " fill="#94A840" transform="translate(587,569)"/>
</svg>
